<?xml version="1.0" encoding="utf-8"?>
<!DOCTYPE svg PUBLIC "-//W3C//DTD SVG 1.1//EN" "http://www.w3.org/Graphics/SVG/1.1/DTD/svg11.dtd">
<svg version="1.1" id="Layer_1" xmlns="http://www.w3.org/2000/svg" xmlns:xlink="http://www.w3.org/1999/xlink" x="0px" y="0px" width="404px" height="92px" viewBox="0 0 404 92" enable-background="new 0 0 404 92" xml:space="preserve">
<g>
	<g enable-background="new">
		<path fill="#333333" d="M113.288,85.997c0.659,0.687,1.583,1.148,2.536,1.148c1.205,0,1.919-0.603,1.919-1.499 c0-0.938-0.658-1.232-1.527-1.625l-1.317-0.574c-0.868-0.364-1.863-1.022-1.863-2.367c0-1.4,1.219-2.438,2.885-2.438 c1.093,0,2.06,0.463,2.718,1.135l-0.63,0.757c-0.561-0.532-1.233-0.869-2.087-0.869c-1.022,0-1.708,0.519-1.708,1.345 c0,0.883,0.798,1.219,1.527,1.527l1.303,0.561c1.064,0.462,1.891,1.092,1.891,2.451c0,1.457-1.19,2.619-3.124,2.619 c-1.289,0-2.423-0.532-3.222-1.358L113.288,85.997z"/>
		<path fill="#333333" d="M123.174,81.024c1.737,0,2.718,1.246,2.718,3.193c0,0.238-0.014,0.463-0.042,0.631h-4.595 c0.084,1.471,0.967,2.395,2.27,2.395c0.644,0,1.19-0.21,1.695-0.532l0.406,0.757c-0.588,0.378-1.317,0.7-2.241,0.7 c-1.821,0-3.264-1.331-3.264-3.558C120.12,82.383,121.619,81.024,123.174,81.024z M124.883,84.092 c0-1.387-0.616-2.157-1.681-2.157c-0.953,0-1.821,0.784-1.961,2.157H124.883z"/>
		<path fill="#333333" d="M131.42,83.686c0-0.868-0.294-1.709-1.4-1.709c-0.798,0-1.499,0.364-2.031,0.729l-0.462-0.799 c0.63-0.406,1.583-0.882,2.676-0.882c1.667,0,2.367,1.106,2.367,2.802V88h-0.953l-0.098-0.812h-0.028 c-0.658,0.532-1.415,0.98-2.255,0.98c-1.148,0-2.003-0.714-2.003-1.933C127.232,84.75,128.521,84.008,131.42,83.686z M129.557,87.243c0.658,0,1.205-0.321,1.863-0.91v-1.891c-2.283,0.28-3.053,0.84-3.053,1.709 C128.367,86.922,128.885,87.243,129.557,87.243z"/>
		<path fill="#333333" d="M134.736,81.192h0.953l0.098,1.232h0.042c0.462-0.854,1.163-1.4,1.933-1.4c0.294,0,0.504,0.042,0.729,0.14 l-0.224,1.009c-0.224-0.07-0.378-0.112-0.659-0.112c-0.574,0-1.261,0.421-1.723,1.569V88h-1.149V81.192z"/>
		<path fill="#333333" d="M142.367,81.024c0.896,0,1.527,0.378,1.989,0.812l-0.574,0.742c-0.406-0.351-0.827-0.603-1.373-0.603 c-1.233,0-2.129,1.064-2.129,2.634c0,1.555,0.854,2.605,2.101,2.605c0.645,0,1.191-0.322,1.597-0.687l0.518,0.756 c-0.616,0.547-1.401,0.883-2.213,0.883c-1.807,0-3.193-1.303-3.193-3.558C139.09,82.327,140.616,81.024,142.367,81.024z"/>
		<path fill="#333333" d="M145.978,78.026h1.149v2.718l-0.042,1.4c0.644-0.616,1.331-1.12,2.269-1.12 c1.429,0,2.073,0.925,2.073,2.661V88h-1.149v-4.16c0-1.274-0.392-1.821-1.289-1.821c-0.7,0-1.177,0.364-1.863,1.051V88h-1.149 V78.026z"/>
		<path fill="#333333" d="M159.49,78.965c-0.252-0.111-0.518-0.168-0.771-0.168c-0.644,0-0.953,0.448-0.953,1.316v1.079h1.443v0.938 h-1.443V88h-1.148v-5.869h-0.924v-0.868l0.924-0.07v-1.079c0-1.387,0.63-2.255,1.989-2.255c0.42,0,0.826,0.099,1.134,0.225 L159.49,78.965z"/>
		<path fill="#333333" d="M163.157,81.024c1.667,0,3.152,1.303,3.152,3.586c0,2.255-1.485,3.558-3.152,3.558 s-3.151-1.303-3.151-3.558C160.006,82.327,161.49,81.024,163.157,81.024z M163.157,87.216c1.177,0,1.961-1.051,1.961-2.605 c0-1.569-0.785-2.634-1.961-2.634c-1.163,0-1.961,1.064-1.961,2.634C161.196,86.165,161.994,87.216,163.157,87.216z"/>
		<path fill="#333333" d="M168.097,81.192h0.953l0.098,1.232h0.042c0.462-0.854,1.163-1.4,1.933-1.4c0.294,0,0.504,0.042,0.729,0.14 l-0.224,1.009c-0.224-0.07-0.378-0.112-0.659-0.112c-0.574,0-1.261,0.421-1.723,1.569V88h-1.149V81.192z"/>
		<path fill="#333333" d="M175.783,81.192h0.953l0.098,1.232h0.042c0.462-0.854,1.163-1.4,1.933-1.4c0.294,0,0.504,0.042,0.729,0.14 l-0.224,1.009c-0.224-0.07-0.378-0.112-0.659-0.112c-0.574,0-1.261,0.421-1.723,1.569V88h-1.149V81.192z"/>
		<path fill="#333333" d="M183.19,81.024c1.737,0,2.718,1.246,2.718,3.193c0,0.238-0.014,0.463-0.042,0.631h-4.595 c0.084,1.471,0.967,2.395,2.27,2.395c0.644,0,1.19-0.21,1.695-0.532l0.406,0.757c-0.588,0.378-1.317,0.7-2.241,0.7 c-1.821,0-3.264-1.331-3.264-3.558C180.137,82.383,181.635,81.024,183.19,81.024z M184.899,84.092 c0-1.387-0.616-2.157-1.681-2.157c-0.953,0-1.821,0.784-1.961,2.157H184.899z"/>
		<path fill="#333333" d="M191.437,83.686c0-0.868-0.294-1.709-1.4-1.709c-0.798,0-1.499,0.364-2.031,0.729l-0.462-0.799 c0.63-0.406,1.583-0.882,2.676-0.882c1.667,0,2.367,1.106,2.367,2.802V88h-0.953l-0.098-0.812h-0.028 c-0.658,0.532-1.415,0.98-2.255,0.98c-1.148,0-2.003-0.714-2.003-1.933C187.249,84.75,188.537,84.008,191.437,83.686z M189.574,87.243c0.658,0,1.205-0.321,1.863-0.91v-1.891c-2.283,0.28-3.053,0.84-3.053,1.709 C188.384,86.922,188.902,87.243,189.574,87.243z"/>
		<path fill="#333333" d="M194.752,78.026h1.149v8.685c0,0.364,0.154,0.505,0.322,0.505c0.07,0,0.126,0,0.252-0.028l0.154,0.868 c-0.154,0.07-0.351,0.112-0.659,0.112c-0.868,0-1.219-0.546-1.219-1.541V78.026z"/>
		<path fill="#333333" d="M201.15,81.192h0.953l0.098,0.98h0.042c0.644-0.645,1.345-1.148,2.283-1.148 c1.43,0,2.074,0.925,2.074,2.661V88h-1.149v-4.16c0-1.274-0.392-1.821-1.288-1.821c-0.701,0-1.178,0.364-1.863,1.051V88h-1.149 V81.192z"/>
		<path fill="#333333" d="M208.598,79.049c0-0.448,0.351-0.742,0.799-0.742s0.799,0.294,0.799,0.742 c0,0.435-0.351,0.743-0.799,0.743S208.598,79.483,208.598,79.049z M208.809,81.192h1.148V88h-1.148V81.192z"/>
		<path fill="#333333" d="M212.252,81.192h0.953l0.098,0.98h0.042c0.645-0.645,1.345-1.148,2.283-1.148 c1.429,0,2.073,0.925,2.073,2.661V88h-1.148v-4.16c0-1.274-0.393-1.821-1.289-1.821c-0.7,0-1.177,0.364-1.863,1.051V88h-1.148 V81.192z"/>
		<path fill="#333333" d="M219.966,89.975c0.771,0,1.261-0.616,1.541-1.456l0.153-0.505l-2.73-6.821h1.19l1.387,3.768 c0.21,0.589,0.448,1.289,0.658,1.919h0.056c0.196-0.616,0.393-1.316,0.574-1.919l1.219-3.768h1.121l-2.563,7.368 c-0.476,1.345-1.177,2.367-2.55,2.367c-0.308,0-0.574-0.057-0.798-0.141l0.224-0.91C219.588,89.919,219.798,89.975,219.966,89.975 z"/> <path fill="#333333" d="M230.3,83.686c0-0.868-0.294-1.709-1.4-1.709c-0.798,0-1.499,0.364-2.031,0.729l-0.462-0.799 c0.63-0.406,1.582-0.882,2.676-0.882c1.666,0,2.367,1.106,2.367,2.802V88h-0.953l-0.098-0.812h-0.028 c-0.658,0.532-1.415,0.98-2.255,0.98c-1.148,0-2.004-0.714-2.004-1.933C226.112,84.75,227.401,84.008,230.3,83.686z M228.438,87.243c0.658,0,1.204-0.321,1.862-0.91v-1.891c-2.283,0.28-3.054,0.84-3.054,1.709 C227.246,86.922,227.765,87.243,228.438,87.243z"/> <path fill="#333333" d="M233.434,86.459c0.588,0.477,1.191,0.812,2.004,0.812c0.896,0,1.344-0.477,1.344-1.064 c0-0.7-0.812-1.009-1.555-1.289c-0.967-0.35-2.031-0.812-2.031-1.961c0-1.093,0.869-1.933,2.34-1.933 c0.854,0,1.597,0.35,2.115,0.771l-0.547,0.729c-0.462-0.351-0.952-0.603-1.555-0.603c-0.854,0-1.246,0.462-1.246,0.98 c0,0.645,0.742,0.883,1.512,1.177c0.98,0.364,2.074,0.771,2.074,2.059c0,1.106-0.883,2.031-2.494,2.031 c-0.967,0-1.891-0.406-2.535-0.938L233.434,86.459z"/> <path fill="#333333" d="M240.365,86.403c0.448,0,0.826,0.364,0.826,0.896c0,0.504-0.378,0.868-0.826,0.868 c-0.462,0-0.841-0.364-0.841-0.868C239.524,86.768,239.903,86.403,240.365,86.403z M239.804,79.932l-0.028-1.316h1.163 l-0.028,1.316l-0.154,5.295h-0.798L239.804,79.932z"/>
	</g>
</g>
<rect x="181" y="13" fill="#C02F2F" width="13" height="60"/>
<path fill="#C02F2F" d="M397,62V31c0-11.25-8.688-18-19-18h-30v11c0,0,31.812,0,32,0c2.209,0,4,1.791,4,4v6.615l-33.396,4.223 C343.278,40.025,339,43.375,339,51.709V58.5c0,8.54,4.65,14.5,15.327,14.5H403V62C402.938,62,397,62,397,62z M384,62h-31 c-0.499,0-1-0.5-1-1V51c0-1.091,0.609-1.705,2-2l30-4V62z"/>
<path fill="#C02F2F" d="M313,73c9.941,0,18-7.164,18-16V13h-13v22h-32c-1.104,0-2-0.896-2-2V18h-13v17c0,6.075,6.268,11,14,11h33v12 c0,2.209-1.791,4-4,4c-0.188,0-34,0-34,0v11H313z"/>
<path fill="#C02F2F" d="M170,31c0-11.25-7.688-18-18-18h-27v6h-13v54h13V24h28c2.209,0,4,1.791,4,4v45h13V31z"/>
<path fill="#C02F2F" d="M263,31c0-11.25-7.688-18-18-18h-27v6h-13v54h13V24h28c2.209,0,4,1.791,4,4v45h13V31z"/>
<g>
	<linearGradient id="SVGID_1_" gradientUnits="userSpaceOnUse" x1="48.3083" y1="47.9463" x2="76.4812" y2="47.9463" gradientTransform="matrix(1 0 0 -1 24.9448 83.3594)">
	<stop  offset="0" style="stop-color:#D73F40"/>
	<stop  offset="1" style="stop-color:#AA1E1E"/>
	</linearGradient>
	<polygon fill="url(#SVGID_1_)" points="101.426,27.053 73.253,37.939 93.187,43.773"/>
	<polygon fill="#5A1E1E" points="86.094,21.2 73.266,37.977 86.248,32.861"/>
	<polygon fill="#C02F2F" points="71,20.308 38.693,2 6.385,20.308 1,62.308 38.693,86 76.385,62.308"/>

		<linearGradient id="SVGID_2_" gradientUnits="userSpaceOnUse" x1="45.2478" y1="14.8589" x2="14.5556" y2="45.551" gradientTransform="matrix(1 0 0 -1 24.9448 83.3594)">
		<stop  offset="0" style="stop-color:#A02828"/>
		<stop  offset="1" style="stop-color:#5B0000"/>
	</linearGradient>
	<polygon fill="url(#SVGID_2_)" points="38.693,86 76.385,62.308 71,20.308 38.693,38.615"/>

		<linearGradient id="SVGID_3_" gradientUnits="userSpaceOnUse" x1="39.3313" y1="36.3916" x2="22.3642" y2="53.3587" gradientTransform="matrix(1 0 0 -1 24.9448 83.3594)">
		<stop  offset="0" style="stop-color:#5A1414"/>
		<stop  offset="1" style="stop-color:#460000"/>
	</linearGradient>
	<polygon fill="url(#SVGID_3_)" points="71,20.308 38.693,38.615 38.693,54.77 73.266,37.977"/>
	<polygon fill="#871E1E" points="6.385,20.308 4.119,37.977 38.693,54.77 38.693,38.615"/>

	<linearGradient id="SVGID_4_" gradientUnits="userSpaceOnUse" x1="-18.5598" y1="63.0518" x2="46.0554" y2="63.0518" gradientTransform="matrix(1 0 0 -1 24.9448 83.3594)">
		<stop  offset="0" style="stop-color:#9B1414"/>
		<stop  offset="1" style="stop-color:#E64B4B"/>
	</linearGradient>
	<polygon fill="url(#SVGID_4_)" points="38.693,2 6.385,20.308 38.693,38.615 71,20.308"/>
	<polygon fill="#C8C8B9" points="38.693,54.77 65.089,41.984 67.14,58 38.693,58"/>
	<polygon fill="#FFFFF0" points="38.693,58 10.245,58 12.296,41.977 38.693,54.77"/>
	<polygon fill="#0F0F0F" points="30.964,54.23 20.526,49.16 19.337,54.23"/>
	<polygon fill="#0F0F0F" points="46.421,54.23 56.86,49.16 58.048,54.23"/>
</g>
</svg>
